<svg xmlns="http://www.w3.org/2000/svg" height="512" viewBox="0 0 512.504 512.504" width="512"><path d="M507.822 369.583a33.814 33.814 0 00-6.893-20.479c7.388-6.792 11.574-16.269 11.574-26.4 0-19.8-16.108-35.908-35.908-35.908h-7.761c-4.143 0-7.5 3.357-7.5 7.5s3.357 7.5 7.5 7.5h7.761c11.529 0 20.908 9.379 20.908 20.908 0 6.438-2.905 12.422-7.972 16.419a12.316 12.316 0 00-4.625 8.568 12.422 12.422 0 003.113 9.317 18.835 18.835 0 014.802 12.574c0 6.119-2.99 11.887-7.999 15.428-5.912 4.18-7.513 12.101-3.644 18.034a16.95 16.95 0 012.75 9.282c0 7.924-5.606 14.914-13.323 16.619-4.186.92-7.223 4.714-7.223 9.02a9.214 9.214 0 004.783 8.062 17.002 17.002 0 018.819 15.269c-.186 9.193-8.083 16.673-17.605 16.673H312.852a30.405 30.405 0 01-15.444-4.218l-11.831-6.984V296.734l9.547-20.098a38.6 38.6 0 0119.781-18.975l7.55-3.208c.289-.122.57-.263.841-.421l46.053-26.814a7.506 7.506 0 003.126-3.541l12.23-28.693c1.978-4.639 6.514-7.637 11.616-7.637a21.576 21.576 0 0120.02 13.413 27.355 27.355 0 012.064 10.453v31.657a59.827 59.827 0 01-5.444 25.022l-6.952 15.223a13.138 13.138 0 00.9 12.616 13.138 13.138 0 0011.102 6.063h18.863c4.143 0 7.5-3.357 7.5-7.5s-3.357-7.5-7.5-7.5h-16.056l5.787-12.67a74.732 74.732 0 006.8-31.255v-31.657a42.28 42.28 0 00-3.191-16.157c-5.672-13.795-18.976-22.709-33.952-22.709a27.522 27.522 0 00-25.355 16.756l-11.255 26.404-43.496 25.325-7.116 3.024a53.575 53.575 0 00-27.464 26.344l-.914 1.924c-5.024-7.276-13.417-12.057-22.909-12.057H183.97c-8.85 0-16.05 7.2-16.05 16.05v150.43c0 4.143 3.357 7.5 7.5 7.5s7.5-3.357 7.5-7.5v-150.43c0-.579.471-1.05 1.05-1.05h51.67v212.278h-51.67a1.05 1.05 0 01-1.05-1.049V458.51c0-4.143-3.357-7.5-7.5-7.5s-7.5 3.357-7.5 7.5v27.787c0 8.85 7.2 16.049 16.05 16.049h73.781c12.262 0 22.69-7.977 26.386-19.011l5.646 3.333a45.42 45.42 0 0023.068 6.3H459.38c17.629 0 32.254-14.073 32.602-31.37a31.946 31.946 0 00-8.206-22.077c9.167-5.739 15.153-15.97 15.153-27.194 0-5.632-1.465-11.11-4.252-15.953 8.259-6.4 13.145-16.306 13.145-26.791zM270.576 474.521c0 7.072-5.753 12.825-12.825 12.825h-7.111V275.068h7.111c7.072 0 12.825 5.753 12.825 12.825z" data-original="#000000" class="active-path" data-old_color="#000000" fill="#FFF"/><path d="M194.511 94.16l3.088 1.313a38.59 38.59 0 0119.782 18.975l9.547 20.098v103.023c0 4.143 3.357 7.5 7.5 7.5s7.5-3.357 7.5-7.5V125.704c0-7.072 5.753-12.825 12.825-12.825h7.111v125.646c0 4.143 3.357 7.5 7.5 7.5s7.5-3.357 7.5-7.5V112.878h51.67c.579 0 1.05.471 1.05 1.05v88.683c0 4.143 3.357 7.5 7.5 7.5s7.5-3.357 7.5-7.5v-88.683c0-8.85-7.2-16.05-16.05-16.05h-73.781c-9.492 0-17.885 4.781-22.909 12.057l-.914-1.924a53.577 53.577 0 00-27.465-26.344l-3.089-1.313a7.5 7.5 0 00-5.865 13.806zM96.164 38.572c3.351-8.148 11.208-13.414 20.079-13.414 5.043 0 9.579 2.998 11.557 7.637l12.23 28.694a7.496 7.496 0 003.126 3.541l22.059 12.844a7.501 7.501 0 007.547-12.963l-19.908-11.592-11.255-26.405c-4.338-10.179-14.291-16.756-25.415-16.756-14.917 0-28.221 8.914-33.893 22.711A42.27 42.27 0 0079.1 49.024v31.657a74.725 74.725 0 006.8 31.255l5.787 12.67H35.908C16.108 124.606 0 140.714 0 160.514c0 10.132 4.187 19.608 11.574 26.4a33.814 33.814 0 00-6.893 20.479c0 10.484 4.887 20.39 13.145 26.791a31.92 31.92 0 00-4.252 15.953c0 11.226 5.986 21.456 15.152 27.194a31.947 31.947 0 00-8.205 22.078c.348 17.297 14.973 31.369 32.602 31.369h92.297c4.143 0 7.5-3.357 7.5-7.5s-3.357-7.5-7.5-7.5H53.123c-9.522 0-17.42-7.479-17.605-16.672a17.001 17.001 0 018.825-15.271 9.225 9.225 0 004.777-8.061c0-4.301-3.034-8.093-7.215-9.018-7.725-1.706-13.331-8.696-13.331-16.621 0-3.313.951-6.523 2.75-9.282 3.87-5.935 2.269-13.856-3.643-18.033-5.01-3.542-8-9.31-8-15.429 0-4.646 1.705-9.112 4.803-12.574a12.427 12.427 0 003.112-9.317 12.32 12.32 0 00-4.625-8.569c-5.066-3.996-7.972-9.98-7.972-16.418 0-11.529 9.379-20.908 20.908-20.908h58.586c4.513 0 8.662-2.267 11.102-6.063s2.776-8.513.901-12.616l-6.953-15.224A59.827 59.827 0 0194.1 80.681V49.024c0-3.604.694-7.12 2.064-10.452zM400.542 86.392c4.517 2.963 8.139 6.693 11.072 11.405a12.365 12.365 0 0010.52 5.867h.033c4.327 0 8.292-2.193 10.609-5.873 2.952-4.687 7.038-8.667 12.144-11.831a12.347 12.347 0 005.876-10.525 12.433 12.433 0 00-5.873-10.628l-.001-.001c-4.582-2.869-8.285-6.448-11.321-10.941-2.462-3.644-6.566-5.7-10.931-5.461-4.413.225-8.298 2.69-10.393 6.595-2.217 4.132-5.686 7.369-10.604 9.898-3.985 2.048-6.506 5.941-6.743 10.415-.237 4.477 1.861 8.619 5.612 11.08zm22.931-20.976a52.476 52.476 0 0010.311 9.952c-4.521 3.24-8.395 7.031-11.573 11.322a51.463 51.463 0 00-10.128-10.476c4.673-2.944 8.485-6.558 11.39-10.798zM97.034 387.945a58.087 58.087 0 01-17.399-16.816c-2.899-4.291-7.706-6.711-12.874-6.433-5.204.265-9.787 3.175-12.261 7.784-3.544 6.604-9.034 11.751-16.785 15.736-4.697 2.415-7.667 7.005-7.945 12.276-.278 5.275 2.194 10.156 6.614 13.055 6.861 4.501 12.598 10.406 17.048 17.554 2.688 4.315 7.319 6.9 12.391 6.913h.039c5.106 0 9.785-2.591 12.522-6.937 4.548-7.223 10.827-13.347 18.661-18.202a14.543 14.543 0 006.92-12.396c.012-5.123-2.579-9.81-6.931-12.534zm-31.133 34.806c-5.473-8.662-12.479-15.873-20.84-21.448 10.004-5.247 17.548-12.419 22.442-21.338a72.99 72.99 0 0021.18 20.447c-9.454 5.946-17.112 13.454-22.782 22.339z" data-original="#000000" class="active-path" data-old_color="#000000" fill="#FFF"/></svg>