<svg xmlns="http://www.w3.org/2000/svg" viewBox="0 0 512 512"><path d="M242.45 277.757a9.137 9.137 0 01-9.137-9.137v-21.483c0-21.954 17.862-39.816 39.816-39.816h192.179c11.878 0 21.542-9.664 21.542-21.542v-72.696c0-11.878-9.664-21.542-21.542-21.542H16.013a9.137 9.137 0 010-18.274h449.296c21.954 0 39.816 17.862 39.816 39.816v72.695c0 21.954-17.862 39.816-39.816 39.816h-192.18c-11.878 0-21.542 9.663-21.542 21.542v21.483a9.138 9.138 0 01-9.137 9.138z" fill="#536b7c"/><path d="M421.855 0H63.044C50.629 0 40.561 10.069 40.561 22.484v119.844c0 12.415 10.068 22.484 22.484 22.484h358.811c12.415 0 22.483-10.069 22.483-22.484V22.484C444.337 10.069 434.27 0 421.855 0z" fill="#cfdce5"/><path d="M421.855 126.561H63.044c-12.415 0-22.484-10.069-22.484-22.484v38.248c0 12.415 10.068 22.484 22.484 22.484h358.811c12.415 0 22.483-10.069 22.483-22.484v-38.247c-.001 12.415-10.068 22.483-22.483 22.483z" fill="#bac6cc"/><path d="M444.337 22.484v31.897c-67.296 0-67.296 49.442-134.593 49.442s-67.296-49.442-134.593-49.442-67.295 49.442-134.59 49.442V22.484C40.561 10.069 50.629 0 63.044 0h358.811c12.415 0 22.482 10.069 22.482 22.484z" fill="#4ebfed"/><path d="M281.632 496.135c.193 8.708-6.823 15.865-15.519 15.865h-47.326c-8.696 0-15.712-7.157-15.519-15.865l4.796-227.514h68.77l4.798 227.514z" fill="#ff6f52"/><path d="M225.195 496.135l4.797-227.514h-21.928l-4.797 227.514c-.193 8.708 6.823 15.865 15.519 15.865h21.927c-8.695 0-15.711-7.157-15.518-15.865z" fill="#e25749"/><path d="M276.835 277.757h-68.771a9.137 9.137 0 010-18.274h68.771a9.137 9.137 0 010 18.274z" fill="#ff6f52"/></svg>